<mxfile host="Electron" agent="Mozilla/5.0 (Windows NT 10.0; Win64; x64) AppleWebKit/537.36 (KHTML, like Gecko) draw.io/28.1.2 Chrome/138.0.7204.243 Electron/37.4.0 Safari/537.36" version="28.1.2">
  <diagram name="Page-1" id="OCEQ6LFUbmyCKNjFnBYF">
    <mxGraphModel dx="1308" dy="333" grid="1" gridSize="10" guides="1" tooltips="1" connect="1" arrows="1" fold="1" page="1" pageScale="1" pageWidth="850" pageHeight="1100" math="0" shadow="0">
      <root>
        <mxCell id="0" />
        <mxCell id="1" parent="0" />
        <mxCell id="AQthcf2TdmpHWXVwB0-4-1" value="&lt;span style=&quot;background-color: transparent; color: light-dark(rgb(0, 0, 0), rgb(255, 255, 255));&quot;&gt;doctors: Doctor[]&lt;/span&gt;&lt;div&gt;patients: Patient[]&lt;/div&gt;&lt;div&gt;appointments : Appoitment[]&lt;/div&gt;" style="rounded=0;whiteSpace=wrap;html=1;align=left;" vertex="1" parent="1">
          <mxGeometry x="190" y="41" width="190" height="90" as="geometry" />
        </mxCell>
        <mxCell id="AQthcf2TdmpHWXVwB0-4-2" value="HOSPITAL" style="rounded=0;whiteSpace=wrap;html=1;" vertex="1" parent="1">
          <mxGeometry x="190" y="10" width="190" height="30" as="geometry" />
        </mxCell>
        <mxCell id="AQthcf2TdmpHWXVwB0-4-3" value="age: int&lt;div&gt;name: String&lt;br&gt;&lt;div&gt;contactInfo: String&lt;/div&gt;&lt;/div&gt;&lt;div&gt;reason: String&lt;/div&gt;" style="rounded=0;whiteSpace=wrap;html=1;align=left;" vertex="1" parent="1">
          <mxGeometry x="446" y="244" width="174" height="116" as="geometry" />
        </mxCell>
        <mxCell id="AQthcf2TdmpHWXVwB0-4-4" value="&lt;div&gt;&lt;br&gt;&lt;/div&gt;&lt;div&gt;name: String&lt;/div&gt;&lt;div&gt;contactInfo : String&lt;/div&gt;department : String&lt;div&gt;isAvailable: bool&lt;/div&gt;&lt;div&gt;&lt;br&gt;&lt;/div&gt;" style="rounded=0;whiteSpace=wrap;html=1;align=left;" vertex="1" parent="1">
          <mxGeometry x="-79" y="247" width="166" height="102" as="geometry" />
        </mxCell>
        <mxCell id="AQthcf2TdmpHWXVwB0-4-5" value="DOCTOR" style="rounded=0;whiteSpace=wrap;html=1;" vertex="1" parent="1">
          <mxGeometry x="-80" y="218" width="169" height="30" as="geometry" />
        </mxCell>
        <mxCell id="AQthcf2TdmpHWXVwB0-4-6" value="PATIENT" style="rounded=0;whiteSpace=wrap;html=1;" vertex="1" parent="1">
          <mxGeometry x="446" y="214" width="174" height="30" as="geometry" />
        </mxCell>
        <mxCell id="AQthcf2TdmpHWXVwB0-4-7" value="" style="endArrow=classic;html=1;rounded=0;entryX=0.005;entryY=0.139;entryDx=0;entryDy=0;entryPerimeter=0;exitX=1;exitY=0;exitDx=0;exitDy=0;" edge="1" parent="1" source="AQthcf2TdmpHWXVwB0-4-5" target="AQthcf2TdmpHWXVwB0-4-13">
          <mxGeometry width="50" height="50" relative="1" as="geometry">
            <mxPoint x="90" y="210" as="sourcePoint" />
            <mxPoint x="171" y="154.5" as="targetPoint" />
          </mxGeometry>
        </mxCell>
        <mxCell id="AQthcf2TdmpHWXVwB0-4-8" value="" style="endArrow=classic;html=1;rounded=0;entryX=0.998;entryY=0.131;entryDx=0;entryDy=0;exitX=0.25;exitY=0;exitDx=0;exitDy=0;entryPerimeter=0;" edge="1" parent="1" source="AQthcf2TdmpHWXVwB0-4-6" target="AQthcf2TdmpHWXVwB0-4-13">
          <mxGeometry width="50" height="50" relative="1" as="geometry">
            <mxPoint x="410" y="130" as="sourcePoint" />
            <mxPoint x="342" y="92" as="targetPoint" />
          </mxGeometry>
        </mxCell>
        <mxCell id="AQthcf2TdmpHWXVwB0-4-10" style="edgeStyle=orthogonalEdgeStyle;rounded=0;orthogonalLoop=1;jettySize=auto;html=1;exitX=0.5;exitY=1;exitDx=0;exitDy=0;" edge="1" parent="1">
          <mxGeometry relative="1" as="geometry">
            <mxPoint x="108" y="236" as="sourcePoint" />
            <mxPoint x="108" y="236" as="targetPoint" />
          </mxGeometry>
        </mxCell>
        <mxCell id="AQthcf2TdmpHWXVwB0-4-13" value="registeredDoctor(Doctor)&lt;div&gt;registeredPatient(Patient)&lt;/div&gt;&lt;div&gt;scheduledAppointment()&lt;/div&gt;&lt;div&gt;callOnNextPatient()&lt;/div&gt;&lt;div&gt;modifyAppoitmentStatus()&lt;/div&gt;&lt;div&gt;viewAllDoctors()&lt;/div&gt;&lt;div&gt;viewAllAppointments()&lt;/div&gt;" style="rounded=0;whiteSpace=wrap;html=1;align=left;" vertex="1" parent="1">
          <mxGeometry x="190" y="131" width="190" height="99" as="geometry" />
        </mxCell>
        <mxCell id="AQthcf2TdmpHWXVwB0-4-15" style="edgeStyle=orthogonalEdgeStyle;rounded=0;orthogonalLoop=1;jettySize=auto;html=1;exitX=0.5;exitY=1;exitDx=0;exitDy=0;" edge="1" parent="1" source="AQthcf2TdmpHWXVwB0-4-4" target="AQthcf2TdmpHWXVwB0-4-4">
          <mxGeometry relative="1" as="geometry" />
        </mxCell>
        <mxCell id="AQthcf2TdmpHWXVwB0-4-16" value="&lt;span style=&quot;background-color: transparent; color: light-dark(rgb(0, 0, 0), rgb(255, 255, 255));&quot;&gt;patient: Patient&lt;/span&gt;&lt;div&gt;&lt;div&gt;doctor: Doctor&lt;/div&gt;&lt;div&gt;status:&amp;nbsp; String&lt;/div&gt;&lt;/div&gt;" style="rounded=0;whiteSpace=wrap;html=1;align=left;" vertex="1" parent="1">
          <mxGeometry x="193" y="316" width="166" height="102" as="geometry" />
        </mxCell>
        <mxCell id="AQthcf2TdmpHWXVwB0-4-17" value="APPOITMENT" style="rounded=0;whiteSpace=wrap;html=1;" vertex="1" parent="1">
          <mxGeometry x="192" y="286" width="169" height="30" as="geometry" />
        </mxCell>
        <mxCell id="AQthcf2TdmpHWXVwB0-4-18" value="" style="endArrow=classic;html=1;rounded=0;entryX=0.452;entryY=0.986;entryDx=0;entryDy=0;exitX=0.5;exitY=0;exitDx=0;exitDy=0;entryPerimeter=0;" edge="1" parent="1" source="AQthcf2TdmpHWXVwB0-4-17" target="AQthcf2TdmpHWXVwB0-4-13">
          <mxGeometry width="50" height="50" relative="1" as="geometry">
            <mxPoint x="416" y="224" as="sourcePoint" />
            <mxPoint x="307" y="153" as="targetPoint" />
          </mxGeometry>
        </mxCell>
      </root>
    </mxGraphModel>
  </diagram>
</mxfile>
